<?xml version="1.0" encoding="UTF-8" standalone="no"?>
<svg width="300" height="200" viewBox="0 0 300 200" xmlns="http://www.w3.org/2000/svg">
  <!-- Rainbow background -->
  <defs>
    <linearGradient id="rainbow" x1="0%" y1="100%" x2="100%" y2="0%">
      <stop offset="0%" stop-color="#FF9ED2" />
      <stop offset="33%" stop-color="#FFDE59" />
      <stop offset="67%" stop-color="#7BDEFF" />
      <stop offset="100%" stop-color="#83D475" />
    </linearGradient>
  </defs>
  
  <g transform="translate(150, 100)">
    <!-- Rainbow beam -->
    <path d="M-100,80 L-40,-60 L40,-60 L100,80 Z" fill="url(#rainbow)" opacity="0.5" />
    
    <!-- Basic Powerpuff Girls circles -->
    <!-- Bubbles (left) -->
    <g transform="translate(-60, -40)">
      <circle cx="0" cy="0" r="30" fill="#7BDEFF" stroke="#333" stroke-width="2" />
      <circle cx="-8" cy="-5" r="10" fill="white" />
      <circle cx="-8" cy="-5" r="5" fill="#333" />
      <circle cx="8" cy="-5" r="10" fill="white" />
      <circle cx="8" cy="-5" r="5" fill="#333" />
      <path d="M-8,10 Q0,15 8,10" fill="none" stroke="#333" stroke-width="2" />
    </g>
    
    <!-- Blossom (center top) -->
    <g transform="translate(0, -70)">
      <circle cx="0" cy="0" r="30" fill="#FF9ED2" stroke="#333" stroke-width="2" />
      <circle cx="-8" cy="-5" r="10" fill="white" />
      <circle cx="-8" cy="-5" r="5" fill="#333" />
      <circle cx="8" cy="-5" r="10" fill="white" />
      <circle cx="8" cy="-5" r="5" fill="#333" />
      <path d="M-8,10 Q0,20 8,10" fill="none" stroke="#333" stroke-width="2" />
    </g>
    
    <!-- Buttercup (right) -->
    <g transform="translate(60, -40)">
      <circle cx="0" cy="0" r="30" fill="#83D475" stroke="#333" stroke-width="2" />
      <circle cx="-8" cy="-5" r="10" fill="white" />
      <circle cx="-8" cy="-5" r="5" fill="#333" />
      <circle cx="8" cy="-5" r="10" fill="white" />
      <circle cx="8" cy="-5" r="5" fill="#333" />
      <path d="M-8,10 Q0,12 8,10" fill="none" stroke="#333" stroke-width="2" />
    </g>
    
    <!-- Stars and hearts around characters -->
    <polygon points="-90,-30 -85,-20 -75,-18 -82,-10 -80,0 -90,-5 -100,0 -98,-10 -105,-18 -95,-20" fill="#FFDE59" />
    <polygon points="90,30 95,40 105,42 98,50 100,60 90,55 80,60 82,50 75,42 85,40" fill="#FFDE59" />
    <path d="M-70,40 C-70,35 -65,30 -60,30 C-55,30 -50,35 -50,40 C-50,60 -70,65 -70,65 C-70,65 -70,60 -70,40 Z" fill="#FF5555" />
    <path d="M30,60 C30,55 35,50 40,50 C45,50 50,55 50,60 C50,80 30,85 30,85 C30,85 30,80 30,60 Z" fill="#FF5555" />
  </g>
</svg>